<?xml version="1.0" encoding="iso-8859-1"?>
<!-- Generator: Adobe Illustrator 19.0.0, SVG Export Plug-In . SVG Version: 6.00 Build 0)  -->
<svg version="1.1" id="Capa_1" xmlns="http://www.w3.org/2000/svg" xmlns:xlink="http://www.w3.org/1999/xlink" x="0px" y="0px"
	 viewBox="0 0 512 512" style="enable-background:new 0 0 512 512;" xml:space="preserve">
<path style="fill:#3389FF;" d="M465.268,152.947l-93.614,93.314l-52.808-53.107l-53.109-53.109l93.315-93.314
	c6-5.701,15.601-5.701,21.302,0l42.607,42.605l42.305,42.307C470.969,137.344,470.969,146.946,465.268,152.947z"/>
<path style="fill:#2864F0;" d="M465.268,152.947l-93.614,93.314l-52.808-53.107L422.963,89.337l42.305,42.307
	C470.969,137.344,470.969,146.946,465.268,152.947z"/>
<path style="fill:#E6F1FF;" d="M243.234,326.373L24.615,508.493c-6.001,5.1-14.702,4.5-20.102-0.901
	c-5.701-5.401-6.001-14.101-0.901-20.102l181.715-219.025c5.401-6.302,14.702-7.203,21.304-1.8l38.405,38.405
	C250.437,311.671,249.536,320.972,243.234,326.373z"/>
<path style="fill:#BFE1FF;" d="M243.234,326.373L24.615,508.493c-6.001,5.1-14.702,4.5-20.102-0.901l221.618-221.425l18.903,18.903
	C250.437,311.671,249.536,320.972,243.234,326.373z"/>
<g>
	<path style="fill:#69A8FF;" d="M353.352,201.254l-21.304-21.302l-21.902-21.904c-53.409-53.707-139.22-50.407-190.229,0.601
		l-21.304,21.304c-5.699,5.701-5.699,15.302,0,21.302l212.131,212.131c6.001,5.701,15.603,5.701,21.304,0l21.304-21.302
		C406.158,339.275,406.158,254.061,353.352,201.254z"/>
	<path style="fill:#69A8FF;" d="M490.172,71.636l-49.808-49.808c-29.103-29.103-76.811-29.103-105.914,0
		c-6.001,6.001-6.001,15.302,0,21.304L468.868,177.55c6.001,6.001,15.302,6.001,21.304,0
		C519.276,148.447,519.276,100.739,490.172,71.636z"/>
</g>
<g>
	<path style="fill:#3389FF;" d="M353.352,201.254c52.806,52.808,52.806,138.021,0,190.829l-21.304,21.302
		c-5.701,5.701-15.302,5.701-21.304,0L204.83,307.47l127.219-127.519L353.352,201.254z"/>
	<path style="fill:#3389FF;" d="M490.172,177.55c-6.001,6.001-15.302,6.001-21.304,0l-67.21-67.21l63.609-63.609l24.905,24.905
		C519.276,100.739,519.276,148.447,490.172,177.55z"/>
</g>
<g>
</g>
<g>
</g>
<g>
</g>
<g>
</g>
<g>
</g>
<g>
</g>
<g>
</g>
<g>
</g>
<g>
</g>
<g>
</g>
<g>
</g>
<g>
</g>
<g>
</g>
<g>
</g>
<g>
</g>
</svg>
